<svg width="68" height="68" viewBox="0 0 68 68" fill="none" xmlns="http://www.w3.org/2000/svg">
<rect width="68" height="68" fill="black"/>
<path d="M19.868 50.844H8V48.452L11.864 47.578V21.312L8 20.392V18H19.868V20.392L16.004 21.312V47.578L19.868 48.452V50.844Z" fill="white"/>
<path d="M40.6999 50.844L29.8899 22.048H29.7059C29.7979 22.9987 29.8746 24.2867 29.9359 25.912C29.9972 27.5067 30.0279 29.178 30.0279 30.926V50.844H26.2099V18H32.3279L42.4479 44.91H42.6319L52.9359 18H59.0079V50.844H54.9139V30.65C54.9139 29.0553 54.9446 27.476 55.0059 25.912C55.0979 24.348 55.1746 23.0753 55.2359 22.094H55.0519L44.1039 50.844H40.6999Z" fill="white"/>
</svg>
